<svg width="20" height="20" viewBox="0 0 20 20" fill="none" xmlns="http://www.w3.org/2000/svg">
<path d="M8.33317 9.16667H2.49984C2.27882 9.16667 2.06686 9.25446 1.91058 9.41074C1.7543 9.56702 1.6665 9.77899 1.6665 10C1.6665 10.221 1.7543 10.433 1.91058 10.5893C2.06686 10.7455 2.27882 10.8333 2.49984 10.8333H8.33317C8.55418 10.8333 8.76615 10.7455 8.92243 10.5893C9.07871 10.433 9.1665 10.221 9.1665 10C9.1665 9.77899 9.07871 9.56702 8.92243 9.41074C8.76615 9.25446 8.55418 9.16667 8.33317 9.16667ZM8.33317 15.8333H2.49984C2.27882 15.8333 2.06686 15.9211 1.91058 16.0774C1.7543 16.2337 1.6665 16.4457 1.6665 16.6667C1.6665 16.8877 1.7543 17.0996 1.91058 17.2559C2.06686 17.4122 2.27882 17.5 2.49984 17.5H8.33317C8.55418 17.5 8.76615 17.4122 8.92243 17.2559C9.07871 17.0996 9.1665 16.8877 9.1665 16.6667C9.1665 16.4457 9.07871 16.2337 8.92243 16.0774C8.76615 15.9211 8.55418 15.8333 8.33317 15.8333ZM11.6665 4.16667H17.4998C17.7209 4.16667 17.9328 4.07887 18.0891 3.92259C18.2454 3.76631 18.3332 3.55435 18.3332 3.33333C18.3332 3.11232 18.2454 2.90036 18.0891 2.74408C17.9328 2.5878 17.7209 2.5 17.4998 2.5H11.6665C11.4455 2.5 11.2335 2.5878 11.0772 2.74408C10.921 2.90036 10.8332 3.11232 10.8332 3.33333C10.8332 3.55435 10.921 3.76631 11.0772 3.92259C11.2335 4.07887 11.4455 4.16667 11.6665 4.16667ZM8.33317 5.83333H2.49984C2.27882 5.83333 2.06686 5.92113 1.91058 6.07741C1.7543 6.23369 1.6665 6.44565 1.6665 6.66667C1.6665 6.88768 1.7543 7.09964 1.91058 7.25592C2.06686 7.4122 2.27882 7.5 2.49984 7.5H8.33317C8.55418 7.5 8.76615 7.4122 8.92243 7.25592C9.07871 7.09964 9.1665 6.88768 9.1665 6.66667C9.1665 6.44565 9.07871 6.23369 8.92243 6.07741C8.76615 5.92113 8.55418 5.83333 8.33317 5.83333ZM8.33317 12.5H2.49984C2.27882 12.5 2.06686 12.5878 1.91058 12.7441C1.7543 12.9004 1.6665 13.1123 1.6665 13.3333C1.6665 13.5543 1.7543 13.7663 1.91058 13.9226C2.06686 14.0789 2.27882 14.1667 2.49984 14.1667H8.33317C8.55418 14.1667 8.76615 14.0789 8.92243 13.9226C9.07871 13.7663 9.1665 13.5543 9.1665 13.3333C9.1665 13.1123 9.07871 12.9004 8.92243 12.7441C8.76615 12.5878 8.55418 12.5 8.33317 12.5ZM8.33317 2.5H5.83317C5.61216 2.5 5.4002 2.5878 5.24392 2.74408C5.08764 2.90036 4.99984 3.11232 4.99984 3.33333C4.99984 3.55435 5.08764 3.76631 5.24392 3.92259C5.4002 4.07887 5.61216 4.16667 5.83317 4.16667H8.33317C8.55418 4.16667 8.76615 4.07887 8.92243 3.92259C9.07871 3.76631 9.1665 3.55435 9.1665 3.33333C9.1665 3.11232 9.07871 2.90036 8.92243 2.74408C8.76615 2.5878 8.55418 2.5 8.33317 2.5ZM17.4998 5.83333H11.6665C11.4455 5.83333 11.2335 5.92113 11.0772 6.07741C10.921 6.23369 10.8332 6.44565 10.8332 6.66667C10.8332 6.88768 10.921 7.09964 11.0772 7.25592C11.2335 7.4122 11.4455 7.5 11.6665 7.5H17.4998C17.7209 7.5 17.9328 7.4122 18.0891 7.25592C18.2454 7.09964 18.3332 6.88768 18.3332 6.66667C18.3332 6.44565 18.2454 6.23369 18.0891 6.07741C17.9328 5.92113 17.7209 5.83333 17.4998 5.83333ZM17.4998 9.16667H11.6665C11.4455 9.16667 11.2335 9.25446 11.0772 9.41074C10.921 9.56702 10.8332 9.77899 10.8332 10C10.8332 10.221 10.921 10.433 11.0772 10.5893C11.2335 10.7455 11.4455 10.8333 11.6665 10.8333H17.4998C17.7209 10.8333 17.9328 10.7455 18.0891 10.5893C18.2454 10.433 18.3332 10.221 18.3332 10C18.3332 9.77899 18.2454 9.56702 18.0891 9.41074C17.9328 9.25446 17.7209 9.16667 17.4998 9.16667ZM14.1665 15.8333H11.6665C11.4455 15.8333 11.2335 15.9211 11.0772 16.0774C10.921 16.2337 10.8332 16.4457 10.8332 16.6667C10.8332 16.8877 10.921 17.0996 11.0772 17.2559C11.2335 17.4122 11.4455 17.5 11.6665 17.5H14.1665C14.3875 17.5 14.5995 17.4122 14.7558 17.2559C14.912 17.0996 14.9998 16.8877 14.9998 16.6667C14.9998 16.4457 14.912 16.2337 14.7558 16.0774C14.5995 15.9211 14.3875 15.8333 14.1665 15.8333ZM17.4998 12.5H11.6665C11.4455 12.5 11.2335 12.5878 11.0772 12.7441C10.921 12.9004 10.8332 13.1123 10.8332 13.3333C10.8332 13.5543 10.921 13.7663 11.0772 13.9226C11.2335 14.0789 11.4455 14.1667 11.6665 14.1667H17.4998C17.7209 14.1667 17.9328 14.0789 18.0891 13.9226C18.2454 13.7663 18.3332 13.5543 18.3332 13.3333C18.3332 13.1123 18.2454 12.9004 18.0891 12.7441C17.9328 12.5878 17.7209 12.5 17.4998 12.5Z" fill="white"/>
</svg>
