<svg width="13" height="15" viewBox="0 0 13 15" fill="none" xmlns="http://www.w3.org/2000/svg">
<path d="M12.1288 7.16069C12.1825 7.20355 12.2253 7.268 12.2468 7.33229C12.279 7.39657 12.2898 7.46079 12.2898 7.53579C12.2898 7.61079 12.279 7.67502 12.2468 7.7393C12.2253 7.80359 12.1825 7.86804 12.1288 7.9109L6.62875 13.4072C5.91978 14.1143 4.96377 14.5001 3.96476 14.5001C2.96576 14.5001 2.0095 14.1143 1.31127 13.4072C0.6023 12.7 0.205078 11.7465 0.205078 10.7501C0.205078 9.76436 0.6023 8.80011 1.31127 8.10368L7.97149 1.35365C8.47637 0.850083 9.15313 0.571533 9.87284 0.571533C10.5818 0.571533 11.2693 0.850083 11.7742 1.35365C12.2683 1.85722 12.5583 2.54295 12.5583 3.25009C12.5583 3.95724 12.2791 4.64297 11.7742 5.14654L5.10347 11.8858C4.8027 12.1858 4.39444 12.3572 3.96476 12.3572C3.53509 12.3572 3.12683 12.1858 2.82605 11.8858C2.52528 11.5858 2.35347 11.1786 2.35347 10.7501C2.35347 10.3215 2.52528 9.91429 2.82605 9.6143L8.41208 3.94642C8.46579 3.89285 8.51942 3.85012 8.59461 3.81798C8.65906 3.79655 8.72345 3.77508 8.79865 3.77508C8.87384 3.77508 8.93823 3.78584 9.00268 3.81798C9.07787 3.83941 9.1315 3.88211 9.18521 3.92497C9.23892 3.97854 9.27152 4.043 9.30375 4.10729C9.33597 4.17157 9.34623 4.24651 9.34623 4.3108C9.34623 4.38579 9.32523 4.46074 9.30375 4.52503C9.27152 4.58931 9.22818 4.64305 9.18521 4.69662L3.58869 10.3642C3.53498 10.4178 3.5029 10.4823 3.47068 10.5466C3.43845 10.6108 3.42767 10.6751 3.42767 10.7501C3.42767 10.8144 3.43845 10.8893 3.47068 10.9536C3.49216 11.0179 3.53498 11.0823 3.58869 11.1252C3.63166 11.1787 3.69628 11.2215 3.76073 11.2429C3.82518 11.275 3.88957 11.2858 3.96476 11.2858C4.03996 11.2858 4.10435 11.275 4.1688 11.2429C4.23325 11.2215 4.29787 11.1787 4.34084 11.1252L11.0116 4.38587C11.3123 4.08587 11.4841 3.67866 11.4841 3.25009C11.4841 2.82153 11.3123 2.41432 11.0116 2.11432C10.7108 1.81432 10.3025 1.64296 9.87284 1.64296C9.44316 1.64296 9.03491 1.81432 8.73413 2.11432L2.07443 8.85363C1.81662 9.10005 1.62295 9.40012 1.48331 9.72154C1.3544 10.043 1.27927 10.3965 1.27927 10.7501C1.27927 11.1036 1.3544 11.4464 1.48331 11.7679C1.62295 12.1 1.81635 12.3894 2.06342 12.6465C2.31048 12.8929 2.61132 13.0858 2.93358 13.2251C3.26658 13.3537 3.61028 13.4286 3.96476 13.4286C4.31925 13.4286 4.66295 13.3644 4.99595 13.2251C5.31821 13.0858 5.61905 12.8929 5.86611 12.6465L11.3766 7.14997C11.4733 7.05354 11.613 7.00008 11.7527 7.00008C11.8923 7.00008 12.0321 7.05355 12.1288 7.16069Z" fill="black"/>
</svg>
