<svg width="28" height="28" viewBox="0 0 28 28" fill="none" xmlns="http://www.w3.org/2000/svg">
<path d="M21.0001 15.3767V11.6667C20.9984 10.0136 20.4118 8.41455 19.3441 7.15257C18.2765 5.8906 16.7967 5.04717 15.1667 4.77167V3.5C15.1667 3.19058 15.0438 2.89384 14.825 2.67504C14.6062 2.45625 14.3095 2.33334 14.0001 2.33334C13.6907 2.33334 13.3939 2.45625 13.1751 2.67504C12.9563 2.89384 12.8334 3.19058 12.8334 3.5V4.77167C11.2035 5.04717 9.72369 5.8906 8.65603 7.15257C7.58837 8.41455 7.00176 10.0136 7.00008 11.6667V15.3767C6.31927 15.6174 5.72958 16.0628 5.31184 16.6518C4.89411 17.2408 4.66878 17.9446 4.66675 18.6667V21C4.66675 21.3094 4.78966 21.6062 5.00846 21.825C5.22725 22.0438 5.524 22.1667 5.83341 22.1667H9.49675C9.76541 23.1553 10.3519 24.028 11.1658 24.6502C11.9796 25.2724 12.9756 25.6095 14.0001 25.6095C15.0245 25.6095 16.0205 25.2724 16.8344 24.6502C17.6482 24.028 18.2348 23.1553 18.5034 22.1667H22.1667C22.4762 22.1667 22.7729 22.0438 22.9917 21.825C23.2105 21.6062 23.3334 21.3094 23.3334 21V18.6667C23.3314 17.9446 23.1061 17.2408 22.6883 16.6518C22.2706 16.0628 21.6809 15.6174 21.0001 15.3767ZM9.33342 11.6667C9.33342 10.429 9.82508 9.24201 10.7003 8.36684C11.5754 7.49167 12.7624 7 14.0001 7C15.2378 7 16.4247 7.49167 17.2999 8.36684C18.1751 9.24201 18.6667 10.429 18.6667 11.6667V15.1667H9.33342V11.6667ZM14.0001 23.3333C13.5929 23.3309 13.1934 23.2219 12.8414 23.0172C12.4894 22.8126 12.197 22.5193 11.9934 22.1667H16.0067C15.8032 22.5193 15.5108 22.8126 15.1588 23.0172C14.8067 23.2219 14.4073 23.3309 14.0001 23.3333ZM21.0001 19.8333H7.00008V18.6667C7.00008 18.3573 7.123 18.0605 7.34179 17.8417C7.56058 17.6229 7.85733 17.5 8.16675 17.5H19.8334C20.1428 17.5 20.4396 17.6229 20.6584 17.8417C20.8772 18.0605 21.0001 18.3573 21.0001 18.6667V19.8333Z" fill="#667085"/>
</svg>
