<svg width="20" height="20" viewBox="0 0 20 20" fill="none" xmlns="http://www.w3.org/2000/svg">
<path d="M17.4998 5.00002H14.1665V4.16669C14.1665 3.50365 13.9031 2.86776 13.4343 2.39892C12.9654 1.93008 12.3295 1.66669 11.6665 1.66669H8.33317C7.67013 1.66669 7.03425 1.93008 6.5654 2.39892C6.09656 2.86776 5.83317 3.50365 5.83317 4.16669V5.00002H2.49984C2.27882 5.00002 2.06686 5.08782 1.91058 5.2441C1.7543 5.40038 1.6665 5.61234 1.6665 5.83335V9.16669C1.66838 9.51617 1.74351 9.86138 1.88705 10.18C2.03059 10.4987 2.23934 10.7837 2.49984 11.0167V15.8334C2.49984 16.4964 2.76323 17.1323 3.23207 17.6011C3.70091 18.07 4.3368 18.3334 4.99984 18.3334H14.9998C15.6629 18.3334 16.2988 18.07 16.7676 17.6011C17.2364 17.1323 17.4998 16.4964 17.4998 15.8334V11.0167C17.7603 10.7837 17.9691 10.4987 18.1126 10.18C18.2562 9.86138 18.3313 9.51617 18.3332 9.16669V5.83335C18.3332 5.61234 18.2454 5.40038 18.0891 5.2441C17.9328 5.08782 17.7209 5.00002 17.4998 5.00002ZM7.49984 4.16669C7.49984 3.94567 7.58764 3.73371 7.74392 3.57743C7.9002 3.42115 8.11216 3.33335 8.33317 3.33335H11.6665C11.8875 3.33335 12.0995 3.42115 12.2558 3.57743C12.412 3.73371 12.4998 3.94567 12.4998 4.16669V5.00002H7.49984V4.16669ZM15.8332 15.8334C15.8332 16.0544 15.7454 16.2663 15.5891 16.4226C15.4328 16.5789 15.2209 16.6667 14.9998 16.6667H4.99984C4.77882 16.6667 4.56686 16.5789 4.41058 16.4226C4.2543 16.2663 4.1665 16.0544 4.1665 15.8334V11.6667H5.83317V12.5C5.83317 12.721 5.92097 12.933 6.07725 13.0893C6.23353 13.2456 6.44549 13.3334 6.6665 13.3334C6.88752 13.3334 7.09948 13.2456 7.25576 13.0893C7.41204 12.933 7.49984 12.721 7.49984 12.5V11.6667H12.4998V12.5C12.4998 12.721 12.5876 12.933 12.7439 13.0893C12.9002 13.2456 13.1122 13.3334 13.3332 13.3334C13.5542 13.3334 13.7661 13.2456 13.9224 13.0893C14.0787 12.933 14.1665 12.721 14.1665 12.5V11.6667H15.8332V15.8334ZM16.6665 9.16669C16.6665 9.3877 16.5787 9.59966 16.4224 9.75594C16.2661 9.91222 16.0542 10 15.8332 10H14.1665V9.16669C14.1665 8.94567 14.0787 8.73371 13.9224 8.57743C13.7661 8.42115 13.5542 8.33335 13.3332 8.33335C13.1122 8.33335 12.9002 8.42115 12.7439 8.57743C12.5876 8.73371 12.4998 8.94567 12.4998 9.16669V10H7.49984V9.16669C7.49984 8.94567 7.41204 8.73371 7.25576 8.57743C7.09948 8.42115 6.88752 8.33335 6.6665 8.33335C6.44549 8.33335 6.23353 8.42115 6.07725 8.57743C5.92097 8.73371 5.83317 8.94567 5.83317 9.16669V10H4.1665C3.94549 10 3.73353 9.91222 3.57725 9.75594C3.42097 9.59966 3.33317 9.3877 3.33317 9.16669V6.66669H16.6665V9.16669Z" fill="white"/>
</svg>
