<svg width="20" height="20" viewBox="0 0 20 20" fill="none" xmlns="http://www.w3.org/2000/svg">
<path d="M12.3574 9.40834L8.8241 5.87501C8.74663 5.7969 8.65446 5.73491 8.55291 5.6926C8.45136 5.65029 8.34244 5.62851 8.23243 5.62851C8.12242 5.62851 8.0135 5.65029 7.91195 5.6926C7.8104 5.73491 7.71823 5.7969 7.64076 5.87501C7.48556 6.03114 7.39844 6.24235 7.39844 6.46251C7.39844 6.68266 7.48556 6.89387 7.64076 7.05001L10.5908 10L7.64076 12.95C7.48556 13.1061 7.39844 13.3174 7.39844 13.5375C7.39844 13.7577 7.48556 13.9689 7.64076 14.125C7.71863 14.2022 7.81098 14.2633 7.91251 14.3048C8.01404 14.3463 8.12276 14.3673 8.23243 14.3667C8.3421 14.3673 8.45082 14.3463 8.55235 14.3048C8.65388 14.2633 8.74623 14.2022 8.8241 14.125L12.3574 10.5917C12.4355 10.5142 12.4975 10.422 12.5398 10.3205C12.5821 10.2189 12.6039 10.11 12.6039 10C12.6039 9.89 12.5821 9.78108 12.5398 9.67953C12.4975 9.57798 12.4355 9.48581 12.3574 9.40834Z" fill="#455360"/>
</svg>
