<svg width="20" height="20" viewBox="0 0 20 20" fill="none" xmlns="http://www.w3.org/2000/svg">
<path d="M17.4998 15.4166H12.3498C12.2254 15.0672 12.0247 14.7497 11.7624 14.4874C11.5001 14.2251 11.1827 14.0244 10.8332 13.9V11.25H13.4748C14.3572 11.279 15.2196 10.9835 15.8988 10.4194C16.5779 9.85531 17.0267 9.06182 17.1602 8.18911C17.2937 7.3164 17.1026 6.42504 16.623 5.68376C16.1435 4.94248 15.4089 4.40272 14.5582 4.16665C14.1125 3.17921 13.3582 2.36323 12.4088 1.84149C11.4594 1.31976 10.3662 1.1205 9.2937 1.27371C8.22125 1.42692 7.22757 1.9243 6.4622 2.69101C5.69683 3.45771 5.20117 4.45226 5.04984 5.52498C4.37166 5.71516 3.78521 6.14431 3.39881 6.73319C3.0124 7.32207 2.85214 8.03088 2.94762 8.72871C3.0431 9.42654 3.38788 10.0663 3.91827 10.5297C4.44866 10.9931 5.12884 11.249 5.83317 11.25H9.1665V13.9C8.81701 14.0244 8.49958 14.2251 8.23725 14.4874C7.97493 14.7497 7.77427 15.0672 7.64984 15.4166H2.49984C2.27882 15.4166 2.06686 15.5044 1.91058 15.6607C1.7543 15.817 1.6665 16.029 1.6665 16.25C1.6665 16.471 1.7543 16.683 1.91058 16.8392C2.06686 16.9955 2.27882 17.0833 2.49984 17.0833H7.64984C7.82501 17.5659 8.14453 17.9829 8.56497 18.2776C8.98542 18.5723 9.4864 18.7304 9.99984 18.7304C10.5133 18.7304 11.0143 18.5723 11.4347 18.2776C11.8551 17.9829 12.1747 17.5659 12.3498 17.0833H17.4998C17.7209 17.0833 17.9328 16.9955 18.0891 16.8392C18.2454 16.683 18.3332 16.471 18.3332 16.25C18.3332 16.029 18.2454 15.817 18.0891 15.6607C17.9328 15.5044 17.7209 15.4166 17.4998 15.4166ZM5.83317 9.58331C5.50165 9.58331 5.18371 9.45162 4.94929 9.2172C4.71487 8.98278 4.58317 8.66483 4.58317 8.33331C4.58317 8.00179 4.71487 7.68385 4.94929 7.44943C5.18371 7.21501 5.50165 7.08331 5.83317 7.08331C6.05418 7.08331 6.26615 6.99552 6.42243 6.83924C6.57871 6.68296 6.6665 6.47099 6.6665 6.24998C6.66432 5.45876 6.94367 4.69255 7.45458 4.08839C7.96549 3.48423 8.67465 3.08151 9.45525 2.95225C10.2358 2.82298 11.037 2.9756 11.7154 3.38282C12.3938 3.79004 12.9052 4.42529 13.1582 5.17498C13.2058 5.31818 13.2914 5.44576 13.4059 5.54409C13.5204 5.64243 13.6594 5.70783 13.8082 5.73331C14.2592 5.80853 14.6688 6.04187 14.9635 6.39154C15.2582 6.74121 15.4188 7.18436 15.4165 7.64165C15.4143 8.15593 15.209 8.64853 14.8454 9.01219C14.4817 9.37585 13.9891 9.58112 13.4748 9.58331H5.83317ZM9.99984 17.0833C9.83502 17.0833 9.6739 17.0344 9.53686 16.9429C9.39982 16.8513 9.29301 16.7212 9.22994 16.5689C9.16686 16.4166 9.15036 16.2491 9.18252 16.0874C9.21467 15.9258 9.29404 15.7773 9.41058 15.6607C9.52713 15.5442 9.67561 15.4648 9.83726 15.4327C9.99891 15.4005 10.1665 15.417 10.3187 15.4801C10.471 15.5432 10.6012 15.65 10.6927 15.787C10.7843 15.924 10.8332 16.0852 10.8332 16.25C10.8332 16.471 10.7454 16.683 10.5891 16.8392C10.4328 16.9955 10.2209 17.0833 9.99984 17.0833Z" fill="white"/>
</svg>
