<svg width="20" height="20" viewBox="0 0 20 20" fill="none" xmlns="http://www.w3.org/2000/svg">
<path d="M18.7498 12.0833C18.7498 11.6413 18.5742 11.2174 18.2616 10.9048C17.9491 10.5923 17.5251 10.4167 17.0831 10.4167H12.0831C11.6411 10.4167 11.2172 10.5923 10.9046 10.9048C10.592 11.2174 10.4164 11.6413 10.4164 12.0833H7.91644V9.58334H9.8581C10.5823 9.58455 11.2832 9.32805 11.8356 8.85973C12.388 8.39142 12.7557 7.74184 12.8729 7.02723C12.9902 6.31262 12.8494 5.5796 12.4756 4.95932C12.1019 4.33903 11.5197 3.87196 10.8331 3.64167C10.452 2.84704 9.82883 2.19369 9.05307 1.77555C8.2773 1.35741 7.38894 1.196 6.51567 1.31454C5.6424 1.43307 4.8292 1.82544 4.19296 2.43525C3.55673 3.04505 3.13023 3.84088 2.97477 4.70834C2.41043 4.89383 1.93057 5.27421 1.62119 5.78133C1.31181 6.28846 1.19311 6.88917 1.28638 7.47585C1.37965 8.06253 1.67878 8.59683 2.13017 8.98301C2.58157 9.36919 3.15573 9.58201 3.74977 9.58334H6.24977V16.25C6.24977 16.471 6.33757 16.683 6.49385 16.8393C6.65013 16.9955 6.86209 17.0833 7.0831 17.0833H10.4164C10.4164 17.5254 10.592 17.9493 10.9046 18.2619C11.2172 18.5744 11.6411 18.75 12.0831 18.75H17.0831C17.5251 18.75 17.9491 18.5744 18.2616 18.2619C18.5742 17.9493 18.7498 17.5254 18.7498 17.0833V15.4167C18.7467 15.1232 18.6662 14.8357 18.5164 14.5833C18.6662 14.331 18.7467 14.0435 18.7498 13.75V12.0833ZM3.74977 7.91667C3.52876 7.91667 3.3168 7.82888 3.16052 7.6726C3.00424 7.51632 2.91644 7.30435 2.91644 7.08334C2.91644 6.86233 3.00424 6.65037 3.16052 6.49409C3.3168 6.33781 3.52876 6.25001 3.74977 6.25001C3.97078 6.25001 4.18275 6.16221 4.33903 6.00593C4.49531 5.84965 4.5831 5.63769 4.5831 5.41667C4.57638 4.82197 4.78189 4.24435 5.16273 3.78754C5.54357 3.33073 6.07479 3.02465 6.661 2.92427C7.24721 2.82389 7.85 2.93579 8.36113 3.23987C8.87226 3.54394 9.25825 4.02028 9.44977 4.58334C9.49866 4.72499 9.58483 4.85083 9.69922 4.94762C9.81361 5.04442 9.95199 5.10857 10.0998 5.13334C10.4271 5.18753 10.7238 5.35824 10.9352 5.61401C11.1465 5.86977 11.2582 6.19333 11.2498 6.52501C11.2498 6.8941 11.1031 7.24808 10.8422 7.50906C10.5812 7.77005 10.2272 7.91667 9.8581 7.91667H3.74977ZM10.4164 15.4167H7.91644V13.75H10.4164C10.4195 14.0435 10.5 14.331 10.6498 14.5833C10.5 14.8357 10.4195 15.1232 10.4164 15.4167ZM12.0831 17.0833V15.4167H17.0831V17.0833H12.0831ZM12.0831 13.75V12.0833H17.0831V13.75H12.0831Z" fill="white"/>
</svg>
