<svg width="15" height="15" viewBox="0 0 15 15" fill="none" xmlns="http://www.w3.org/2000/svg">
<path d="M13.125 5.5875C13.1185 5.53008 13.1059 5.47352 13.0875 5.41875V5.3625C13.0574 5.29824 13.0174 5.23917 12.9688 5.1875L9.21875 1.4375C9.16708 1.38889 9.10801 1.3488 9.04375 1.31875C9.02509 1.3161 9.00616 1.3161 8.9875 1.31875C8.92401 1.28234 8.85389 1.25897 8.78125 1.25H6.25C5.75272 1.25 5.27581 1.44754 4.92417 1.79917C4.57254 2.15081 4.375 2.62772 4.375 3.125V3.75H3.75C3.25272 3.75 2.77581 3.94754 2.42417 4.29917C2.07254 4.65081 1.875 5.12772 1.875 5.625V11.875C1.875 12.3723 2.07254 12.8492 2.42417 13.2008C2.77581 13.5525 3.25272 13.75 3.75 13.75H8.75C9.24728 13.75 9.72419 13.5525 10.0758 13.2008C10.4275 12.8492 10.625 12.3723 10.625 11.875V11.25H11.25C11.7473 11.25 12.2242 11.0525 12.5758 10.7008C12.9275 10.3492 13.125 9.87228 13.125 9.375V5.625C13.125 5.625 13.125 5.625 13.125 5.5875ZM9.375 3.38125L10.9937 5H10C9.83424 5 9.67527 4.93415 9.55806 4.81694C9.44085 4.69973 9.375 4.54076 9.375 4.375V3.38125ZM9.375 11.875C9.375 12.0408 9.30915 12.1997 9.19194 12.3169C9.07473 12.4342 8.91576 12.5 8.75 12.5H3.75C3.58424 12.5 3.42527 12.4342 3.30806 12.3169C3.19085 12.1997 3.125 12.0408 3.125 11.875V5.625C3.125 5.45924 3.19085 5.30027 3.30806 5.18306C3.42527 5.06585 3.58424 5 3.75 5H4.375V9.375C4.375 9.87228 4.57254 10.3492 4.92417 10.7008C5.27581 11.0525 5.75272 11.25 6.25 11.25H9.375V11.875ZM11.875 9.375C11.875 9.54076 11.8092 9.69973 11.6919 9.81694C11.5747 9.93415 11.4158 10 11.25 10H6.25C6.08424 10 5.92527 9.93415 5.80806 9.81694C5.69085 9.69973 5.625 9.54076 5.625 9.375V3.125C5.625 2.95924 5.69085 2.80027 5.80806 2.68306C5.92527 2.56585 6.08424 2.5 6.25 2.5H8.125V4.375C8.125 4.87228 8.32254 5.34919 8.67417 5.70083C9.02581 6.05246 9.50272 6.25 10 6.25H11.875V9.375Z" fill="#455360"/>
</svg>
