<svg width="20" height="20" viewBox="0 0 20 20" fill="none" xmlns="http://www.w3.org/2000/svg">
<path d="M6.66683 13.75C6.50201 13.75 6.3409 13.7989 6.20385 13.8904C6.06681 13.982 5.96 14.1121 5.89693 14.2644C5.83386 14.4167 5.81735 14.5842 5.84951 14.7459C5.88166 14.9076 5.96103 15.056 6.07757 15.1726C6.19412 15.2891 6.3426 15.3685 6.50425 15.4006C6.6659 15.4328 6.83346 15.4163 6.98573 15.3532C7.138 15.2902 7.26815 15.1833 7.35972 15.0463C7.45129 14.9093 7.50016 14.7481 7.50016 14.5833C7.50016 14.3623 7.41236 14.1503 7.25608 13.9941C7.0998 13.8378 6.88784 13.75 6.66683 13.75ZM10.0002 1.66666C6.66683 1.66666 3.3335 2.80832 3.3335 4.99999V15C3.3335 17.1917 6.66683 18.3333 10.0002 18.3333C13.3335 18.3333 16.6668 17.1917 16.6668 15V4.99999C16.6668 2.80832 13.3335 1.66666 10.0002 1.66666ZM15.0002 15C15.0002 15.5917 13.1002 16.6667 10.0002 16.6667C6.90016 16.6667 5.00016 15.5917 5.00016 15V12.275C6.56022 13.0166 8.27341 13.3792 10.0002 13.3333C11.7269 13.3792 13.4401 13.0166 15.0002 12.275V15ZM15.0002 9.99999C15.0002 10.5917 13.1002 11.6667 10.0002 11.6667C6.90016 11.6667 5.00016 10.5917 5.00016 9.99999V7.27499C6.56022 8.01662 8.27341 8.37925 10.0002 8.33332C11.7269 8.37925 13.4401 8.01662 15.0002 7.27499V9.99999ZM10.0002 6.66666C6.90016 6.66666 5.00016 5.59166 5.00016 4.99999C5.00016 4.40832 6.90016 3.33332 10.0002 3.33332C13.1002 3.33332 15.0002 4.40832 15.0002 4.99999C15.0002 5.59166 13.1002 6.66666 10.0002 6.66666ZM6.66683 8.74999C6.50201 8.74999 6.3409 8.79886 6.20385 8.89043C6.06681 8.982 5.96 9.11215 5.89693 9.26442C5.83386 9.41669 5.81735 9.58425 5.84951 9.7459C5.88166 9.90755 5.96103 10.056 6.07757 10.1726C6.19412 10.2891 6.3426 10.3685 6.50425 10.4006C6.6659 10.4328 6.83346 10.4163 6.98573 10.3532C7.138 10.2902 7.26815 10.1833 7.35972 10.0463C7.45129 9.90926 7.50016 9.74814 7.50016 9.58332C7.50016 9.36231 7.41236 9.15035 7.25608 8.99407C7.0998 8.83779 6.88784 8.74999 6.66683 8.74999Z" fill="white"/>
</svg>
