<svg width="20" height="20" viewBox="0 0 20 20" fill="none" xmlns="http://www.w3.org/2000/svg">
<path d="M6.66683 14.1667C6.50201 14.1667 6.3409 14.2156 6.20385 14.3071C6.06681 14.3987 5.96 14.5288 5.89693 14.6811C5.83386 14.8334 5.81735 15.0009 5.84951 15.1626C5.88166 15.3242 5.96103 15.4727 6.07757 15.5893C6.19412 15.7058 6.3426 15.7852 6.50425 15.8173C6.6659 15.8495 6.83346 15.833 6.98573 15.7699C7.138 15.7068 7.26815 15.6 7.35972 15.463C7.45129 15.326 7.50016 15.1648 7.50016 15C7.50016 14.779 7.41236 14.567 7.25608 14.4108C7.0998 14.2545 6.88784 14.1667 6.66683 14.1667ZM6.66683 9.16669C6.50201 9.16669 6.3409 9.21556 6.20385 9.30713C6.06681 9.3987 5.96 9.52885 5.89693 9.68112C5.83386 9.83339 5.81735 10.0009 5.84951 10.1626C5.88166 10.3242 5.96103 10.4727 6.07757 10.5893C6.19412 10.7058 6.3426 10.7852 6.50425 10.8173C6.6659 10.8495 6.83346 10.833 6.98573 10.7699C7.138 10.7068 7.26815 10.6 7.35972 10.463C7.45129 10.326 7.50016 10.1648 7.50016 10C7.50016 9.77901 7.41236 9.56705 7.25608 9.41077C7.0998 9.25449 6.88784 9.16669 6.66683 9.16669ZM13.3335 1.66669H6.66683C5.78277 1.66669 4.93493 2.01788 4.30981 2.643C3.68469 3.26812 3.3335 4.11597 3.3335 5.00002V15C3.3335 15.8841 3.68469 16.7319 4.30981 17.357C4.93493 17.9822 5.78277 18.3334 6.66683 18.3334H13.3335C14.2176 18.3334 15.0654 17.9822 15.6905 17.357C16.3156 16.7319 16.6668 15.8841 16.6668 15V5.00002C16.6668 4.11597 16.3156 3.26812 15.6905 2.643C15.0654 2.01788 14.2176 1.66669 13.3335 1.66669ZM15.0002 15C15.0002 15.442 14.8246 15.866 14.512 16.1785C14.1994 16.4911 13.7755 16.6667 13.3335 16.6667H6.66683C6.2248 16.6667 5.80088 16.4911 5.48832 16.1785C5.17576 15.866 5.00016 15.442 5.00016 15V12.8667C5.50349 13.1696 6.07936 13.3309 6.66683 13.3334H13.3335C13.921 13.3309 14.4968 13.1696 15.0002 12.8667V15ZM15.0002 10C15.0002 10.442 14.8246 10.866 14.512 11.1785C14.1994 11.4911 13.7755 11.6667 13.3335 11.6667H6.66683C6.2248 11.6667 5.80088 11.4911 5.48832 11.1785C5.17576 10.866 5.00016 10.442 5.00016 10V7.86669C5.50349 8.16965 6.07936 8.33089 6.66683 8.33335H13.3335C13.921 8.33089 14.4968 8.16965 15.0002 7.86669V10ZM13.3335 6.66669H6.66683C6.2248 6.66669 5.80088 6.49109 5.48832 6.17853C5.17576 5.86597 5.00016 5.44205 5.00016 5.00002C5.00016 4.55799 5.17576 4.13407 5.48832 3.82151C5.80088 3.50895 6.2248 3.33335 6.66683 3.33335H13.3335C13.7755 3.33335 14.1994 3.50895 14.512 3.82151C14.8246 4.13407 15.0002 4.55799 15.0002 5.00002C15.0002 5.44205 14.8246 5.86597 14.512 6.17853C14.1994 6.49109 13.7755 6.66669 13.3335 6.66669Z" fill="white"/>
</svg>
