<svg width="20" height="20" viewBox="0 0 20 20" fill="none" xmlns="http://www.w3.org/2000/svg">
<path d="M17.4998 15.8333H12.3498C12.2254 15.4838 12.0247 15.1664 11.7624 14.9041C11.5001 14.6417 11.1827 14.4411 10.8332 14.3166V12.5H13.3332C13.9962 12.5 14.6321 12.2366 15.1009 11.7677C15.5698 11.2989 15.8332 10.663 15.8332 9.99998V6.66665C15.8332 6.66665 15.8332 6.66665 15.8332 6.61665C15.8245 6.54009 15.8077 6.46467 15.7832 6.39165V6.31665C15.7431 6.23096 15.6897 6.1522 15.6248 6.08331L10.6248 1.08331C10.556 1.01849 10.4772 0.965047 10.3915 0.92498C10.3666 0.921446 10.3414 0.921446 10.3165 0.92498C10.2318 0.876431 10.1384 0.845266 10.0415 0.833313H6.6665C6.00346 0.833313 5.36758 1.09671 4.89874 1.56555C4.4299 2.03439 4.1665 2.67027 4.1665 3.33331V9.99998C4.1665 10.663 4.4299 11.2989 4.89874 11.7677C5.36758 12.2366 6.00346 12.5 6.6665 12.5H9.1665V14.3166C8.81701 14.4411 8.49958 14.6417 8.23725 14.9041C7.97493 15.1664 7.77427 15.4838 7.64984 15.8333H2.49984C2.27882 15.8333 2.06686 15.9211 1.91058 16.0774C1.7543 16.2337 1.6665 16.4456 1.6665 16.6666C1.6665 16.8877 1.7543 17.0996 1.91058 17.2559C2.06686 17.4122 2.27882 17.5 2.49984 17.5H7.64984C7.82501 17.9826 8.14453 18.3996 8.56497 18.6943C8.98542 18.989 9.4864 19.147 9.99984 19.147C10.5133 19.147 11.0143 18.989 11.4347 18.6943C11.8551 18.3996 12.1747 17.9826 12.3498 17.5H17.4998C17.7209 17.5 17.9328 17.4122 18.0891 17.2559C18.2454 17.0996 18.3332 16.8877 18.3332 16.6666C18.3332 16.4456 18.2454 16.2337 18.0891 16.0774C17.9328 15.9211 17.7209 15.8333 17.4998 15.8333ZM10.8332 3.67498L12.9915 5.83331H11.6665C11.4455 5.83331 11.2335 5.74552 11.0772 5.58923C10.921 5.43295 10.8332 5.22099 10.8332 4.99998V3.67498ZM6.6665 10.8333C6.44549 10.8333 6.23353 10.7455 6.07725 10.5892C5.92097 10.433 5.83317 10.221 5.83317 9.99998V3.33331C5.83317 3.1123 5.92097 2.90034 6.07725 2.74406C6.23353 2.58778 6.44549 2.49998 6.6665 2.49998H9.1665V4.99998C9.1665 5.66302 9.4299 6.29891 9.89874 6.76775C10.3676 7.23659 11.0035 7.49998 11.6665 7.49998H14.1665V9.99998C14.1665 10.221 14.0787 10.433 13.9224 10.5892C13.7661 10.7455 13.5542 10.8333 13.3332 10.8333H6.6665ZM9.99984 17.5C9.83502 17.5 9.6739 17.4511 9.53686 17.3595C9.39982 17.268 9.29301 17.1378 9.22994 16.9855C9.16686 16.8333 9.15036 16.6657 9.18252 16.5041C9.21467 16.3424 9.29404 16.1939 9.41058 16.0774C9.52713 15.9608 9.67561 15.8815 9.83726 15.8493C9.99891 15.8172 10.1665 15.8337 10.3187 15.8967C10.471 15.9598 10.6012 16.0666 10.6927 16.2037C10.7843 16.3407 10.8332 16.5018 10.8332 16.6666C10.8332 16.8877 10.7454 17.0996 10.5891 17.2559C10.4328 17.4122 10.2209 17.5 9.99984 17.5Z" fill="white"/>
</svg>
