<svg width="30" height="30" viewBox="0 0 30 30" fill="none" xmlns="http://www.w3.org/2000/svg">
<path d="M15 25H6.25C5.91848 25 5.60054 24.8683 5.36612 24.6339C5.1317 24.3995 5 24.0815 5 23.75V6.25C5 5.91848 5.1317 5.60054 5.36612 5.36612C5.60054 5.1317 5.91848 5 6.25 5H12.5V8.75C12.5 9.74456 12.8951 10.6984 13.5983 11.4017C14.3016 12.1049 15.2554 12.5 16.25 12.5H20V13.75C20 14.0815 20.1317 14.3995 20.3661 14.6339C20.6005 14.8683 20.9185 15 21.25 15C21.5815 15 21.8995 14.8683 22.1339 14.6339C22.3683 14.3995 22.5 14.0815 22.5 13.75V11.25C22.5 11.25 22.5 11.25 22.5 11.175C22.487 11.0602 22.4618 10.947 22.425 10.8375V10.725C22.3649 10.5965 22.2847 10.4783 22.1875 10.375L14.6875 2.875C14.5842 2.77777 14.466 2.6976 14.3375 2.6375C14.3002 2.6322 14.2623 2.6322 14.225 2.6375C14.098 2.56468 13.9578 2.51793 13.8125 2.5H6.25C5.25544 2.5 4.30161 2.89509 3.59835 3.59835C2.89509 4.30161 2.5 5.25544 2.5 6.25V23.75C2.5 24.7446 2.89509 25.6984 3.59835 26.4017C4.30161 27.1049 5.25544 27.5 6.25 27.5H15C15.3315 27.5 15.6495 27.3683 15.8839 27.1339C16.1183 26.8995 16.25 26.5815 16.25 26.25C16.25 25.9185 16.1183 25.6005 15.8839 25.3661C15.6495 25.1317 15.3315 25 15 25ZM15 6.7625L18.2375 10H16.25C15.9185 10 15.6005 9.8683 15.3661 9.63388C15.1317 9.39946 15 9.08152 15 8.75V6.7625ZM8.75 10C8.41848 10 8.10054 10.1317 7.86612 10.3661C7.6317 10.6005 7.5 10.9185 7.5 11.25C7.5 11.5815 7.6317 11.8995 7.86612 12.1339C8.10054 12.3683 8.41848 12.5 8.75 12.5H10C10.3315 12.5 10.6495 12.3683 10.8839 12.1339C11.1183 11.8995 11.25 11.5815 11.25 11.25C11.25 10.9185 11.1183 10.6005 10.8839 10.3661C10.6495 10.1317 10.3315 10 10 10H8.75ZM27.1375 25.3625L25.675 23.9125C26.1425 23.0966 26.3295 22.1499 26.2076 21.2175C26.0857 20.2851 25.6615 19.4183 25 18.75C24.3913 18.1196 23.6068 17.6871 22.7488 17.5089C21.8908 17.3307 20.999 17.4151 20.1896 17.751C19.3802 18.0869 18.6907 18.6588 18.211 19.3921C17.7312 20.1255 17.4835 20.9863 17.5 21.8625C17.4957 22.6165 17.6886 23.3585 18.0595 24.0149C18.4305 24.6714 18.9666 25.2194 19.6147 25.6047C20.2628 25.9901 21.0003 26.1993 21.7542 26.2116C22.5081 26.2239 23.2522 26.0389 23.9125 25.675L25.3625 27.1375C25.4787 27.2547 25.617 27.3477 25.7693 27.4111C25.9216 27.4746 26.085 27.5072 26.25 27.5072C26.415 27.5072 26.5784 27.4746 26.7307 27.4111C26.883 27.3477 27.0213 27.2547 27.1375 27.1375C27.2547 27.0213 27.3477 26.883 27.4111 26.7307C27.4746 26.5784 27.5072 26.415 27.5072 26.25C27.5072 26.085 27.4746 25.9216 27.4111 25.7693C27.3477 25.617 27.2547 25.4787 27.1375 25.3625ZM23.175 23.175C22.818 23.5107 22.3463 23.6977 21.8563 23.6977C21.3662 23.6977 20.8945 23.5107 20.5375 23.175C20.1934 22.8248 20.0004 22.3535 20 21.8625C19.9974 21.6159 20.0448 21.3714 20.1393 21.1437C20.2339 20.916 20.3736 20.7097 20.55 20.5375C20.8833 20.206 21.3302 20.0139 21.8 20C22.0527 19.9845 22.3059 20.0213 22.5437 20.1083C22.7815 20.1952 22.9988 20.3304 23.1819 20.5053C23.365 20.6801 23.5099 20.891 23.6077 21.1245C23.7055 21.3581 23.7539 21.6093 23.75 21.8625C23.7397 22.3589 23.5329 22.8309 23.175 23.175ZM16.25 15H8.75C8.41848 15 8.10054 15.1317 7.86612 15.3661C7.6317 15.6005 7.5 15.9185 7.5 16.25C7.5 16.5815 7.6317 16.8995 7.86612 17.1339C8.10054 17.3683 8.41848 17.5 8.75 17.5H16.25C16.5815 17.5 16.8995 17.3683 17.1339 17.1339C17.3683 16.8995 17.5 16.5815 17.5 16.25C17.5 15.9185 17.3683 15.6005 17.1339 15.3661C16.8995 15.1317 16.5815 15 16.25 15ZM13.75 22.5C14.0815 22.5 14.3995 22.3683 14.6339 22.1339C14.8683 21.8995 15 21.5815 15 21.25C15 20.9185 14.8683 20.6005 14.6339 20.3661C14.3995 20.1317 14.0815 20 13.75 20H8.75C8.41848 20 8.10054 20.1317 7.86612 20.3661C7.6317 20.6005 7.5 20.9185 7.5 21.25C7.5 21.5815 7.6317 21.8995 7.86612 22.1339C8.10054 22.3683 8.41848 22.5 8.75 22.5H13.75Z" fill="#292731"/>
</svg>
