<svg width="16" height="17" viewBox="0 0 16 17" fill="none" xmlns="http://www.w3.org/2000/svg">
<path d="M5.99935 7.16665H6.66602C6.84283 7.16665 7.0124 7.09641 7.13742 6.97138C7.26244 6.84636 7.33268 6.67679 7.33268 6.49998C7.33268 6.32317 7.26244 6.1536 7.13742 6.02858C7.0124 5.90355 6.84283 5.83331 6.66602 5.83331H5.99935C5.82254 5.83331 5.65297 5.90355 5.52794 6.02858C5.40292 6.1536 5.33268 6.32317 5.33268 6.49998C5.33268 6.67679 5.40292 6.84636 5.52794 6.97138C5.65297 7.09641 5.82254 7.16665 5.99935 7.16665ZM5.99935 8.49998C5.82254 8.49998 5.65297 8.57022 5.52794 8.69524C5.40292 8.82027 5.33268 8.98984 5.33268 9.16665C5.33268 9.34346 5.40292 9.51303 5.52794 9.63805C5.65297 9.76308 5.82254 9.83331 5.99935 9.83331H9.99935C10.1762 9.83331 10.3457 9.76308 10.4708 9.63805C10.5958 9.51303 10.666 9.34346 10.666 9.16665C10.666 8.98984 10.5958 8.82027 10.4708 8.69524C10.3457 8.57022 10.1762 8.49998 9.99935 8.49998H5.99935ZM13.3327 6.45998C13.3257 6.39874 13.3123 6.3384 13.2927 6.27998V6.21998C13.2606 6.15143 13.2179 6.08842 13.166 6.03331L9.16602 2.03331C9.11091 1.98146 9.0479 1.9387 8.97935 1.90665C8.95945 1.90382 8.93925 1.90382 8.91935 1.90665C8.85162 1.86781 8.77683 1.84288 8.69935 1.83331H4.66602C4.13558 1.83331 3.62687 2.04403 3.2518 2.4191C2.87673 2.79417 2.66602 3.30288 2.66602 3.83331V13.1666C2.66602 13.6971 2.87673 14.2058 3.2518 14.5809C3.62687 14.9559 4.13558 15.1666 4.66602 15.1666H11.3327C11.8631 15.1666 12.3718 14.9559 12.7469 14.5809C13.122 14.2058 13.3327 13.6971 13.3327 13.1666V6.49998C13.3327 6.49998 13.3327 6.49998 13.3327 6.45998ZM9.33268 4.10665L11.0593 5.83331H9.99935C9.82254 5.83331 9.65297 5.76308 9.52794 5.63805C9.40292 5.51303 9.33268 5.34346 9.33268 5.16665V4.10665ZM11.9993 13.1666C11.9993 13.3435 11.9291 13.513 11.8041 13.6381C11.6791 13.7631 11.5095 13.8333 11.3327 13.8333H4.66602C4.4892 13.8333 4.31964 13.7631 4.19461 13.6381C4.06959 13.513 3.99935 13.3435 3.99935 13.1666V3.83331C3.99935 3.6565 4.06959 3.48693 4.19461 3.36191C4.31964 3.23688 4.4892 3.16665 4.66602 3.16665H7.99935V5.16665C7.99935 5.69708 8.21006 6.20579 8.58513 6.58086C8.96021 6.95593 9.46892 7.16665 9.99935 7.16665H11.9993V13.1666ZM9.99935 11.1666H5.99935C5.82254 11.1666 5.65297 11.2369 5.52794 11.3619C5.40292 11.4869 5.33268 11.6565 5.33268 11.8333C5.33268 12.0101 5.40292 12.1797 5.52794 12.3047C5.65297 12.4297 5.82254 12.5 5.99935 12.5H9.99935C10.1762 12.5 10.3457 12.4297 10.4708 12.3047C10.5958 12.1797 10.666 12.0101 10.666 11.8333C10.666 11.6565 10.5958 11.4869 10.4708 11.3619C10.3457 11.2369 10.1762 11.1666 9.99935 11.1666Z" fill="#343434"/>
</svg>
