<svg width="20" height="20" viewBox="0 0 20 20" fill="none" xmlns="http://www.w3.org/2000/svg">
<path d="M11.0002 12.5C10.8335 12.5833 10.6668 12.5833 10.5002 12.6666C10.4168 12.5 10.3335 12.3333 10.2502 12.25C9.5835 11.6666 8.5835 11.5833 7.75016 12.0833C7.0835 12.5 6.66683 13.3333 6.66683 14.1666C6.66683 14.5833 7.0835 15 7.50016 14.9166C7.91683 14.9166 8.3335 14.5 8.3335 14.0833C8.3335 13.8333 8.41683 13.6666 8.5835 13.5C8.66683 13.5 8.75016 13.4166 8.8335 13.4166C8.5835 13.9166 8.75016 14.5 9.25016 14.8333C9.41683 14.9166 9.50016 14.9166 9.66683 14.9166C10.0002 14.9166 10.3335 14.75 10.5835 14.5C10.6668 14.4166 10.8335 14.3333 11.0002 14.25C11.0835 14.5833 11.4168 14.9166 11.8335 14.9166H12.5002C13.0002 14.9166 13.3335 14.5833 13.3335 14.0833C13.3335 13.6666 13.0002 13.3333 12.5835 13.25C12.5002 13.0833 12.5002 13 12.3335 12.8333C12.0835 12.5833 11.5002 12.4166 11.0002 12.5ZM16.6668 7.41665C16.6668 7.33331 16.6668 7.24998 16.5835 7.16665V7.08331C16.5835 6.99998 16.5002 6.91665 16.4168 6.83331L11.4168 1.83331C11.3335 1.74998 11.2502 1.74998 11.1668 1.66665H11.0835C11.0002 1.66665 10.9168 1.66665 10.8335 1.58331C10.8335 1.58331 10.8335 1.58331 10.7502 1.58331H5.8335C4.41683 1.66665 3.3335 2.74998 3.3335 4.16665V15.8333C3.3335 17.25 4.41683 18.3333 5.8335 18.3333H14.1668C15.5835 18.3333 16.6668 17.25 16.6668 15.8333V7.41665C16.6668 7.49998 16.6668 7.49998 16.6668 7.41665ZM11.6668 4.49998L13.8335 6.66665H12.5002C12.0002 6.66665 11.6668 6.33331 11.6668 5.83331V4.49998ZM15.0002 15.8333C15.0002 16.3333 14.6668 16.6666 14.1668 16.6666H5.8335C5.3335 16.6666 5.00016 16.3333 5.00016 15.8333V4.16665C5.00016 3.66665 5.3335 3.33331 5.8335 3.33331H10.0002V5.83331C10.0002 7.24998 11.0835 8.33331 12.5002 8.33331H15.0002V15.8333ZM7.50016 8.33331H8.3335C8.8335 8.33331 9.16683 7.99998 9.16683 7.49998C9.16683 6.99998 8.8335 6.66665 8.3335 6.66665H7.50016C7.00016 6.66665 6.66683 6.99998 6.66683 7.49998C6.66683 7.99998 7.00016 8.33331 7.50016 8.33331Z" fill="white"/>
</svg>
