<svg width="30" height="30" viewBox="0 0 30 30" fill="none" xmlns="http://www.w3.org/2000/svg">
<path d="M23.75 2.5H6.25C5.25544 2.5 4.30161 2.89509 3.59835 3.59835C2.89509 4.30161 2.5 5.25544 2.5 6.25V7.7125C2.49982 8.22868 2.60621 8.73934 2.8125 9.2125V9.2875C2.9891 9.68871 3.23924 10.0533 3.55 10.3625L11.25 18.0125V26.25C11.2496 26.4624 11.3033 26.6715 11.4061 26.8574C11.5089 27.0433 11.6574 27.1999 11.8375 27.3125C12.0364 27.4358 12.266 27.5008 12.5 27.5C12.6957 27.4988 12.8883 27.4517 13.0625 27.3625L18.0625 24.8625C18.2686 24.7586 18.442 24.5997 18.5633 24.4033C18.6847 24.207 18.7493 23.9808 18.75 23.75V18.0125L26.4 10.3625C26.7108 10.0533 26.9609 9.68871 27.1375 9.2875V9.2125C27.361 8.74304 27.4845 8.23222 27.5 7.7125V6.25C27.5 5.25544 27.1049 4.30161 26.4017 3.59835C25.6984 2.89509 24.7446 2.5 23.75 2.5ZM16.6125 16.6125C16.4966 16.7293 16.405 16.8678 16.3428 17.0201C16.2806 17.1724 16.249 17.3355 16.25 17.5V22.975L13.75 24.225V17.5C13.751 17.3355 13.7194 17.1724 13.6572 17.0201C13.595 16.8678 13.5034 16.7293 13.3875 16.6125L6.7625 10H23.2375L16.6125 16.6125ZM25 7.5H5V6.25C5 5.91848 5.1317 5.60054 5.36612 5.36612C5.60054 5.1317 5.91848 5 6.25 5H23.75C24.0815 5 24.3995 5.1317 24.6339 5.36612C24.8683 5.60054 25 5.91848 25 6.25V7.5Z" fill="#292731"/>
</svg>
