<svg width="20" height="20" viewBox="0 0 20 20" fill="none" xmlns="http://www.w3.org/2000/svg">
<path d="M16.7583 14.575L12.5 7.27499V3.33332H13.3333C13.5543 3.33332 13.7663 3.24553 13.9226 3.08925C14.0789 2.93297 14.1667 2.721 14.1667 2.49999C14.1667 2.27898 14.0789 2.06701 13.9226 1.91073C13.7663 1.75445 13.5543 1.66666 13.3333 1.66666H6.66666C6.44564 1.66666 6.23368 1.75445 6.0774 1.91073C5.92112 2.06701 5.83332 2.27898 5.83332 2.49999C5.83332 2.721 5.92112 2.93297 6.0774 3.08925C6.23368 3.24553 6.44564 3.33332 6.66666 3.33332H7.49999V7.27499L3.24166 14.575C3.02044 14.9548 2.90325 15.3861 2.9019 15.8256C2.90054 16.2651 3.01507 16.6972 3.23395 17.0783C3.45282 17.4594 3.76829 17.7761 4.14857 17.9965C4.52885 18.2168 4.96049 18.333 5.39999 18.3333H14.5667C15.0062 18.333 15.4378 18.2168 15.8181 17.9965C16.1984 17.7761 16.5138 17.4594 16.7327 17.0783C16.9516 16.6972 17.0661 16.2651 17.0647 15.8256C17.0634 15.3861 16.9462 14.9548 16.725 14.575H16.7583ZM9.04999 7.90832C9.12349 7.78457 9.16368 7.64389 9.16666 7.49999V3.33332H10.8333V7.49999C10.8348 7.64673 10.8751 7.79046 10.95 7.91666L11.6667 9.16666H8.33332L9.04999 7.90832ZM15.3167 16.2417C15.2439 16.3676 15.1395 16.4723 15.0138 16.5454C14.8881 16.6185 14.7454 16.6574 14.6 16.6583H5.43332C5.28789 16.6574 5.14523 16.6185 5.0195 16.5454C4.89378 16.4723 4.78937 16.3676 4.71666 16.2417C4.64352 16.115 4.60501 15.9713 4.60501 15.825C4.60501 15.6787 4.64352 15.535 4.71666 15.4083L7.35832 10.8333H12.65L15.3167 15.4167C15.3898 15.5433 15.4283 15.687 15.4283 15.8333C15.4283 15.9796 15.3898 16.1233 15.3167 16.25V16.2417ZM8.33332 12.5C8.1685 12.5 8.00739 12.5489 7.87035 12.6404C7.73331 12.732 7.6265 12.8621 7.56342 13.0144C7.50035 13.1667 7.48385 13.3342 7.516 13.4959C7.54816 13.6576 7.62752 13.806 7.74407 13.9226C7.86061 14.0391 8.0091 14.1185 8.17075 14.1506C8.3324 14.1828 8.49995 14.1663 8.65223 14.1032C8.8045 14.0402 8.93465 13.9333 9.02621 13.7963C9.11778 13.6593 9.16666 13.4981 9.16666 13.3333C9.16666 13.1123 9.07886 12.9003 8.92258 12.7441C8.7663 12.5878 8.55434 12.5 8.33332 12.5ZM11.6667 13.3333C11.5018 13.3333 11.3407 13.3822 11.2037 13.4738C11.0666 13.5653 10.9598 13.6955 10.8968 13.8478C10.8337 14 10.8172 14.1676 10.8493 14.3292C10.8815 14.4909 10.9609 14.6394 11.0774 14.7559C11.1939 14.8725 11.3424 14.9518 11.5041 14.984C11.6657 15.0161 11.8333 14.9996 11.9856 14.9366C12.1378 14.8735 12.268 14.7667 12.3595 14.6296C12.4511 14.4926 12.5 14.3315 12.5 14.1667C12.5 13.9456 12.4122 13.7337 12.2559 13.5774C12.0996 13.4211 11.8877 13.3333 11.6667 13.3333Z" fill="#292731"/>
</svg>
