<svg width="15" height="15" viewBox="0 0 15 15" fill="none" xmlns="http://www.w3.org/2000/svg">
<path d="M7.1779 0.571533C5.79219 0.571533 4.44959 0.978779 3.3002 1.7502C2.15081 2.51092 1.25933 3.59296 0.722235 4.86796C0.195879 6.14295 0.0561074 7.54653 0.324656 8.89652C0.603947 10.2465 1.25898 11.4895 2.23649 12.4645C3.21401 13.4394 4.46016 14.0928 5.81365 14.3714C7.16714 14.6392 8.57461 14.5001 9.8529 13.9751C11.1312 13.4394 12.2158 12.5502 12.9785 11.4038C13.7519 10.2573 14.1602 8.91793 14.1602 7.53579C14.1602 5.69294 13.4188 3.91428 12.1083 2.61786C10.8085 1.31072 9.02552 0.571533 7.1779 0.571533ZM13.0645 7.00008H10.39C10.2933 5.09295 9.70218 3.28217 8.70318 1.84647C9.86331 2.15718 10.9163 2.82148 11.6897 3.74291C12.4739 4.66433 12.9463 5.80009 13.0645 7.00008ZM7.1779 13.4179C5.92109 12.0679 5.15816 10.1394 5.04 8.07151H9.3158C9.19764 10.1394 8.43471 12.0679 7.1779 13.4179ZM5.04 7.00008C5.15816 4.93223 5.92109 3.00368 7.1779 1.65368C8.43471 3.00368 9.19764 4.93223 9.3158 7.00008H5.04ZM5.65263 1.84647C4.65362 3.28217 4.06248 5.09295 3.9658 7.00008H1.29133C1.40949 5.80009 1.8819 4.66433 2.66607 3.74291C3.43949 2.82148 4.4925 2.15718 5.65263 1.84647ZM1.29133 8.07151H3.9658C4.06248 9.97864 4.65362 11.7894 5.65263 13.2251C4.4925 12.9144 3.43949 12.2501 2.66607 11.3287C1.8819 10.4073 1.40949 9.2715 1.29133 8.07151ZM8.70318 13.2251C9.70218 11.7894 10.2933 9.97864 10.39 8.07151H13.0645C12.9463 9.2715 12.4739 10.4073 11.6897 11.3287C10.9163 12.2501 9.86331 12.9144 8.70318 13.2251Z" fill="black"/>
</svg>
