<svg width="12" height="16" viewBox="0 0 12 16" fill="none" xmlns="http://www.w3.org/2000/svg">
<path d="M9.15228 14.4998C9.15228 14.6391 9.09868 14.7785 8.99126 14.8749C8.89458 14.9821 8.75483 15.0355 8.61519 15.0355H3.24421C3.10456 15.0355 2.96481 14.9821 2.86813 14.8749C2.76071 14.7785 2.70711 14.6391 2.70711 14.4998C2.70711 14.3605 2.76071 14.2212 2.86813 14.1247C2.96481 14.0176 3.10456 13.9641 3.24421 13.9641H8.61519C8.75483 13.9641 8.89458 14.0176 8.99126 14.1247C9.09868 14.2212 9.15228 14.3605 9.15228 14.4998ZM11.8378 5.92843C11.8378 6.81771 11.6339 7.7069 11.2472 8.51047C10.8605 9.31404 10.2801 10.0106 9.58186 10.5678C9.44221 10.6642 9.34549 10.7926 9.2703 10.9426C9.19511 11.0926 9.15228 11.2535 9.15228 11.4143V11.8213C9.15228 12.0998 9.03408 12.3784 8.84073 12.5819C8.63663 12.7748 8.36812 12.8927 8.07809 12.8927H3.7813C3.49127 12.8927 3.22276 12.7748 3.01867 12.5819C2.82531 12.3784 2.70711 12.0998 2.70711 11.8213V11.4143C2.70711 11.2535 2.66403 11.0926 2.59958 10.9426C2.52439 10.8033 2.41693 10.6749 2.28802 10.5678C1.5898 10.0214 1.02068 9.32477 0.62323 8.53192C0.225777 7.72835 0.0216171 6.84989 0.0216171 5.96061C0.000133203 2.76776 2.58907 0.110595 5.79018 0.0355949C6.57434 0.0141664 7.35812 0.153326 8.08858 0.442611C8.82977 0.731895 9.49586 1.16065 10.0544 1.70708C10.6238 2.26422 11.0642 2.91784 11.3757 3.6357C11.6765 4.36427 11.8378 5.14629 11.8378 5.92843ZM10.7636 5.92843C10.7636 5.28558 10.6346 4.65344 10.3875 4.05344C10.1297 3.46415 9.76472 2.92847 9.30282 2.47847C8.84091 2.02848 8.30356 1.67494 7.70201 1.43922C7.10046 1.20351 6.4562 1.09631 5.81168 1.10702C3.19064 1.17131 1.08507 3.34632 1.09581 5.94988C1.09581 6.67845 1.26764 7.39626 1.5899 8.04983C1.91216 8.7034 2.37409 9.28203 2.95415 9.72132C3.21196 9.92489 3.41587 10.182 3.56625 10.4713C3.7059 10.7713 3.7813 11.0928 3.7813 11.4143V11.8213H5.3926V8.83195L3.40523 6.83925C3.29781 6.74282 3.24421 6.60343 3.24421 6.46414C3.24421 6.32486 3.29781 6.18547 3.40523 6.08904C3.50191 5.9819 3.64166 5.92843 3.7813 5.92843C3.92095 5.92843 4.0607 5.9819 4.15738 6.08904L5.9297 7.84632L7.70201 6.08904C7.74498 6.03547 7.8096 5.99276 7.87405 5.97133C7.93851 5.93919 8.00289 5.92843 8.07809 5.92843C8.15328 5.92843 8.21767 5.93919 8.28212 5.97133C8.34657 5.99276 8.41119 6.03547 8.45416 6.08904C8.50787 6.1319 8.55069 6.19635 8.57218 6.26064C8.6044 6.32492 8.61519 6.38914 8.61519 6.46414C8.61519 6.53914 8.6044 6.60337 8.57218 6.66765C8.55069 6.73194 8.50787 6.79639 8.45416 6.83925L6.46679 8.83195V11.8213H8.07809V11.4143C8.07809 11.0928 8.15324 10.7713 8.30363 10.4713C8.44327 10.182 8.65792 9.92489 8.91573 9.72132C9.4958 9.27132 9.95772 8.69268 10.28 8.03911C10.6022 7.38554 10.7636 6.657 10.7636 5.92843Z" fill="black"/>
</svg>
