<svg width="20" height="20" viewBox="0 0 20 20" fill="none" xmlns="http://www.w3.org/2000/svg">
<path d="M14.6813 5.71234V7.56859C14.6626 9.00609 13.5126 10.1811 12.0751 10.2186H7.90635C6.7501 10.2436 5.8251 11.1811 5.81885 12.3373V16.3123C5.81885 17.4436 6.8001 18.1123 7.90635 18.4311C9.2626 18.8561 10.7188 18.8561 12.0751 18.4311C13.1251 18.1248 14.1626 17.5123 14.1626 16.3123V14.7186H9.99385V14.1873H16.2501C17.4626 14.1873 17.9126 13.3436 18.3376 12.0686C18.7688 10.6873 18.7688 9.20609 18.3376 7.82484C18.0376 6.61859 17.4626 5.70609 16.2501 5.70609H14.6813V5.71234ZM12.3376 15.7811C12.7751 15.7748 13.1376 16.1248 13.1438 16.5623C13.1501 16.9998 12.8001 17.3623 12.3626 17.3686C11.9251 17.3748 11.5626 17.0248 11.5563 16.5873V16.5748C11.5563 16.1373 11.9063 15.7873 12.3376 15.7811Z" fill="white"/>
<path d="M9.90068 1.25C9.23193 1.25 8.56318 1.30625 7.90693 1.41875C6.13818 1.73125 5.81943 2.38125 5.81943 3.5875V5.18125H9.99443V5.7125H4.25068C2.98193 5.6875 1.88193 6.58125 1.64443 7.83125C1.25068 9.21875 1.25068 10.6875 1.64443 12.075C1.93818 13.3125 2.65068 14.1937 3.86318 14.1937H5.30068V12.2875C5.33193 10.8625 6.48193 9.71875 7.90693 9.69375H12.0757C13.2382 9.6875 14.1694 8.7375 14.1632 7.575V3.6C14.0882 2.4625 13.2069 1.54375 12.0757 1.43125C11.3569 1.3125 10.6319 1.25625 9.90068 1.2625V1.25ZM7.63818 2.53125C8.07568 2.525 8.43818 2.875 8.44443 3.3125C8.45068 3.75 8.10068 4.1125 7.66318 4.11875C7.22568 4.125 6.86318 3.775 6.85693 3.3375C6.85693 3.3375 6.85693 3.33125 6.85693 3.325C6.85693 2.8875 7.20693 2.53125 7.63818 2.525V2.53125Z" fill="white"/>
</svg>
