<svg width="24" height="25" viewBox="0 0 24 25" fill="none" xmlns="http://www.w3.org/2000/svg">
<path d="M9 15.5C8.80222 15.5 8.60888 15.5586 8.44443 15.6685C8.27998 15.7784 8.15181 15.9346 8.07612 16.1173C8.00043 16.3 7.98063 16.5011 8.01921 16.6951C8.0578 16.8891 8.15304 17.0673 8.29289 17.2071C8.43275 17.347 8.61093 17.4422 8.80491 17.4808C8.99889 17.5194 9.19996 17.4996 9.38268 17.4239C9.56541 17.3482 9.72159 17.22 9.83147 17.0556C9.94135 16.8911 10 16.6978 10 16.5C10 16.2348 9.89464 15.9804 9.70711 15.7929C9.51957 15.6054 9.26522 15.5 9 15.5ZM2 14.5C1.73478 14.5 1.48043 14.6054 1.29289 14.7929C1.10536 14.9804 1 15.2348 1 15.5V17.5C1 17.7652 1.10536 18.0196 1.29289 18.2071C1.48043 18.3946 1.73478 18.5 2 18.5C2.26522 18.5 2.51957 18.3946 2.70711 18.2071C2.89464 18.0196 3 17.7652 3 17.5V15.5C3 15.2348 2.89464 14.9804 2.70711 14.7929C2.51957 14.6054 2.26522 14.5 2 14.5ZM22 14.5C21.7348 14.5 21.4804 14.6054 21.2929 14.7929C21.1054 14.9804 21 15.2348 21 15.5V17.5C21 17.7652 21.1054 18.0196 21.2929 18.2071C21.4804 18.3946 21.7348 18.5 22 18.5C22.2652 18.5 22.5196 18.3946 22.7071 18.2071C22.8946 18.0196 23 17.7652 23 17.5V15.5C23 15.2348 22.8946 14.9804 22.7071 14.7929C22.5196 14.6054 22.2652 14.5 22 14.5ZM17 7.5H13V6.22C13.3023 6.04549 13.5536 5.79491 13.7291 5.49317C13.9045 5.19143 13.9979 4.84903 14 4.5C14 3.96957 13.7893 3.46086 13.4142 3.08579C13.0391 2.71071 12.5304 2.5 12 2.5C11.4696 2.5 10.9609 2.71071 10.5858 3.08579C10.2107 3.46086 10 3.96957 10 4.5C10.0021 4.84903 10.0955 5.19143 10.2709 5.49317C10.4464 5.79491 10.6977 6.04549 11 6.22V7.5H7C6.20435 7.5 5.44129 7.81607 4.87868 8.37868C4.31607 8.94129 4 9.70435 4 10.5V19.5C4 20.2956 4.31607 21.0587 4.87868 21.6213C5.44129 22.1839 6.20435 22.5 7 22.5H17C17.7956 22.5 18.5587 22.1839 19.1213 21.6213C19.6839 21.0587 20 20.2956 20 19.5V10.5C20 9.70435 19.6839 8.94129 19.1213 8.37868C18.5587 7.81607 17.7956 7.5 17 7.5ZM13.72 9.5L13.22 11.5H10.78L10.28 9.5H13.72ZM18 19.5C18 19.7652 17.8946 20.0196 17.7071 20.2071C17.5196 20.3946 17.2652 20.5 17 20.5H7C6.73478 20.5 6.48043 20.3946 6.29289 20.2071C6.10536 20.0196 6 19.7652 6 19.5V10.5C6 10.2348 6.10536 9.98043 6.29289 9.79289C6.48043 9.60536 6.73478 9.5 7 9.5H8.22L9 12.74C9.05475 12.9619 9.18385 13.1583 9.36579 13.2966C9.54774 13.4349 9.77157 13.5067 10 13.5H14C14.2284 13.5067 14.4523 13.4349 14.6342 13.2966C14.8162 13.1583 14.9452 12.9619 15 12.74L15.78 9.5H17C17.2652 9.5 17.5196 9.60536 17.7071 9.79289C17.8946 9.98043 18 10.2348 18 10.5V19.5ZM15 15.5C14.8022 15.5 14.6089 15.5586 14.4444 15.6685C14.28 15.7784 14.1518 15.9346 14.0761 16.1173C14.0004 16.3 13.9806 16.5011 14.0192 16.6951C14.0578 16.8891 14.153 17.0673 14.2929 17.2071C14.4327 17.347 14.6109 17.4422 14.8049 17.4808C14.9989 17.5194 15.2 17.4996 15.3827 17.4239C15.5654 17.3482 15.7216 17.22 15.8315 17.0556C15.9414 16.8911 16 16.6978 16 16.5C16 16.2348 15.8946 15.9804 15.7071 15.7929C15.5196 15.6054 15.2652 15.5 15 15.5Z" fill="#344293"/>
</svg>
