<svg width="20" height="20" viewBox="0 0 20 20" fill="none" xmlns="http://www.w3.org/2000/svg">
<path d="M18.0909 16.9083L14.9992 13.8417C16.1993 12.3454 16.7804 10.4461 16.6232 8.53443C16.466 6.62276 15.5822 4.844 14.1538 3.56388C12.7253 2.28377 10.8607 1.5996 8.94329 1.65207C7.02589 1.70454 5.20146 2.48965 3.84514 3.84596C2.48882 5.20228 1.70371 7.02671 1.65125 8.94411C1.59878 10.8615 2.28294 12.7262 3.56306 14.1546C4.84317 15.5831 6.62194 16.4668 8.5336 16.624C10.4453 16.7813 12.3445 16.2001 13.8409 15L16.9075 18.0667C16.985 18.1448 17.0772 18.2068 17.1787 18.2491C17.2803 18.2914 17.3892 18.3132 17.4992 18.3132C17.6092 18.3132 17.7181 18.2914 17.8197 18.2491C17.9212 18.2068 18.0134 18.1448 18.0909 18.0667C18.2411 17.9113 18.325 17.7036 18.325 17.4875C18.325 17.2714 18.2411 17.0637 18.0909 16.9083ZM9.16585 15C8.01213 15 6.88432 14.6579 5.92503 14.0169C4.96574 13.3759 4.21807 12.4649 3.77656 11.399C3.33505 10.3331 3.21953 9.16021 3.44461 8.02865C3.66969 6.8971 4.22526 5.8577 5.04106 5.04189C5.85687 4.22608 6.89627 3.67051 8.02783 3.44543C9.15938 3.22035 10.3323 3.33587 11.3982 3.77738C12.4641 4.21889 13.3751 4.96657 14.0161 5.92585C14.6571 6.88514 14.9992 8.01295 14.9992 9.16668C14.9992 10.7138 14.3846 12.1975 13.2906 13.2915C12.1967 14.3854 10.713 15 9.16585 15Z" fill="#455360"/>
</svg>
