<svg width="24" height="25" viewBox="0 0 24 25" fill="none" xmlns="http://www.w3.org/2000/svg">
<path d="M8.71 8.21002L11 5.91002V15.5C11 15.7652 11.1054 16.0196 11.2929 16.2071C11.4804 16.3947 11.7348 16.5 12 16.5C12.2652 16.5 12.5196 16.3947 12.7071 16.2071C12.8946 16.0196 13 15.7652 13 15.5V5.91002L15.29 8.21002C15.383 8.30375 15.4936 8.37814 15.6154 8.42891C15.7373 8.47968 15.868 8.50582 16 8.50582C16.132 8.50582 16.2627 8.47968 16.3846 8.42891C16.5064 8.37814 16.617 8.30375 16.71 8.21002C16.8037 8.11706 16.8781 8.00645 16.9289 7.8846C16.9797 7.76274 17.0058 7.63203 17.0058 7.50002C17.0058 7.36801 16.9797 7.2373 16.9289 7.11544C16.8781 6.99358 16.8037 6.88298 16.71 6.79002L12.71 2.79002C12.6149 2.69898 12.5028 2.62761 12.38 2.58002C12.1365 2.48 11.8635 2.48 11.62 2.58002C11.4972 2.62761 11.3851 2.69898 11.29 2.79002L7.29 6.79002C7.19676 6.88326 7.1228 6.99395 7.07234 7.11577C7.02188 7.23759 6.99591 7.36816 6.99591 7.50002C6.99591 7.63188 7.02188 7.76245 7.07234 7.88427C7.1228 8.00609 7.19676 8.11678 7.29 8.21002C7.38324 8.30326 7.49393 8.37722 7.61575 8.42768C7.73757 8.47814 7.86814 8.50411 8 8.50411C8.13186 8.50411 8.26243 8.47814 8.38425 8.42768C8.50607 8.37722 8.61676 8.30326 8.71 8.21002ZM21 12.5C20.7348 12.5 20.4804 12.6054 20.2929 12.7929C20.1054 12.9804 20 13.2348 20 13.5V19.5C20 19.7652 19.8946 20.0196 19.7071 20.2071C19.5196 20.3947 19.2652 20.5 19 20.5H5C4.73478 20.5 4.48043 20.3947 4.29289 20.2071C4.10536 20.0196 4 19.7652 4 19.5V13.5C4 13.2348 3.89464 12.9804 3.70711 12.7929C3.51957 12.6054 3.26522 12.5 3 12.5C2.73478 12.5 2.48043 12.6054 2.29289 12.7929C2.10536 12.9804 2 13.2348 2 13.5V19.5C2 20.2957 2.31607 21.0587 2.87868 21.6213C3.44129 22.1839 4.20435 22.5 5 22.5H19C19.7956 22.5 20.5587 22.1839 21.1213 21.6213C21.6839 21.0587 22 20.2957 22 19.5V13.5C22 13.2348 21.8946 12.9804 21.7071 12.7929C21.5196 12.6054 21.2652 12.5 21 12.5Z" fill="#344293"/>
</svg>
