<svg width="13" height="14" viewBox="0 0 13 14" fill="none" xmlns="http://www.w3.org/2000/svg">
<path d="M1.83319 4.85693V9.14263C1.83319 9.28192 1.77972 9.42131 1.67258 9.51774C1.57614 9.62488 1.43675 9.67834 1.29746 9.67834C1.15816 9.67834 1.01877 9.62488 0.922335 9.51774C0.815188 9.42131 0.761719 9.28192 0.761719 9.14263V4.85693C0.761719 4.71765 0.815188 4.57826 0.922335 4.48183C1.01877 4.37469 1.15816 4.32122 1.29746 4.32122C1.43675 4.32122 1.57614 4.37469 1.67258 4.48183C1.77972 4.57826 1.83319 4.71765 1.83319 4.85693ZM3.97614 0.0355225C3.83685 0.0355225 3.69746 0.0889891 3.60102 0.196132C3.49388 0.29256 3.44041 0.43195 3.44041 0.571235V13.4283C3.44041 13.5676 3.49388 13.707 3.60102 13.8034C3.69746 13.9106 3.83685 13.964 3.97614 13.964C4.11544 13.964 4.25483 13.9106 4.35127 13.8034C4.45841 13.707 4.51188 13.5676 4.51188 13.4283V0.571235C4.51188 0.43195 4.45841 0.29256 4.35127 0.196132C4.25483 0.0889891 4.11544 0.0355225 3.97614 0.0355225ZM6.65483 2.17837C6.51554 2.17837 6.37615 2.23184 6.27971 2.33898C6.17256 2.43541 6.1191 2.5748 6.1191 2.71408V11.2855C6.1191 11.4248 6.17256 11.5642 6.27971 11.6606C6.37615 11.7677 6.51554 11.8212 6.65483 11.8212C6.79413 11.8212 6.93352 11.7677 7.02995 11.6606C7.1371 11.5642 7.19057 11.4248 7.19057 11.2855V2.71408C7.19057 2.5748 7.1371 2.43541 7.02995 2.33898C6.93352 2.23184 6.79413 2.17837 6.65483 2.17837ZM9.33352 4.32122C9.19423 4.32122 9.05483 4.37469 8.9584 4.48183C8.85125 4.57826 8.79778 4.71765 8.79778 4.85693V9.14263C8.79778 9.28192 8.85125 9.42131 8.9584 9.51774C9.05483 9.62488 9.19423 9.67834 9.33352 9.67834C9.47281 9.67834 9.61221 9.62488 9.70864 9.51774C9.81579 9.42131 9.86926 9.28192 9.86926 9.14263V4.85693C9.86926 4.71765 9.81579 4.57826 9.70864 4.48183C9.61221 4.37469 9.47281 4.32122 9.33352 4.32122ZM12.0122 3.2498C11.8729 3.2498 11.7335 3.30326 11.6371 3.41041C11.5299 3.50683 11.4765 3.64622 11.4765 3.78551V10.2141C11.4765 10.3533 11.5299 10.4927 11.6371 10.5892C11.7335 10.6963 11.8729 10.7498 12.0122 10.7498C12.1515 10.7498 12.2909 10.6963 12.3873 10.5892C12.4945 10.4927 12.5479 10.3533 12.5479 10.2141V3.78551C12.5479 3.64622 12.4945 3.50683 12.3873 3.41041C12.2909 3.30326 12.1515 3.2498 12.0122 3.2498Z" fill="white"/>
</svg>
